<svg width="88" height="58" viewBox="0 0 88 58" fill="none" xmlns="http://www.w3.org/2000/svg">
<path d="M81.4095 0.172729H6.59055C2.95058 0.172729 0 3.12331 0 6.76328V51.2375C0 54.8773 2.95058 57.828 6.59055 57.828H81.4095C85.0492 57.828 88 54.8774 88 51.2375V6.76328C88 3.12331 85.0494 0.172729 81.4095 0.172729Z" fill="#41479B"/>
<path d="M87.9087 5.67344C87.3893 2.55237 84.678 0.172241 81.4095 0.172241H79.6947L51.5862 18.5881V0.172413H36.4138V18.5883L8.30534 0.172413H6.59055C3.322 0.172413 0.610672 2.55237 0.0912656 5.67362L24.1156 21.4139H0V36.5864H24.1156L0.0912656 52.3263C0.610672 55.4474 3.322 57.8275 6.59055 57.8275H8.30534L36.4138 39.4116V57.8275H51.5862V39.4116L79.6947 57.8275H81.4095C84.678 57.8275 87.3893 55.4476 87.9087 52.3263L63.8844 36.586H88V21.4136H63.8844L87.9087 5.67344Z" fill="#F5F5F5"/>
<path d="M48.5518 0.172729H39.4482V24.4485H0V33.5521H39.4482V57.8279H48.5518V33.5521H88V24.4485H48.5518V0.172729Z" fill="#FF4B55"/>
<path d="M4.26137 57.4027L36.3303 36.5862H30.7568L1.58545 55.522C2.29925 56.3551 3.21654 57.0079 4.26137 57.4027Z" fill="#FF4B55"/>
<path d="M59.5355 36.5862H53.9619L85.0225 56.748C85.8916 56.1772 86.617 55.4062 87.1343 54.5007L59.5355 36.5862Z" fill="#FF4B55"/>
<path d="M0.695801 3.81607L27.8056 21.4138H33.3792L2.65964 1.4729C1.83482 2.08684 1.15986 2.88949 0.695801 3.81607Z" fill="#FF4B55"/>
<path d="M57.1597 21.4138L86.3845 2.4431C85.6628 1.61277 84.7383 0.963772 83.6862 0.576538L51.5862 21.4138H57.1597Z" fill="#FF4B55"/>
</svg>
