<svg width="87" height="59" viewBox="0 0 87 59" fill="none" xmlns="http://www.w3.org/2000/svg">
<g clip-path="url(#clip0_1624_715)">
<path d="M0 39.3221V50.8281C0 55.5989 3.78855 58.9665 8.419 58.9665H78.5773C83.2078 58.9665 86.9963 55.5989 86.9963 50.8281V39.3221H0Z" fill="#2E2F30"/>
<path d="M78.5773 0.0334473H8.419C3.78855 0.0334473 0 3.40105 0 8.17181V19.6778H86.9963V8.17181C86.9963 3.40105 83.2078 0.0334473 78.5773 0.0334473Z" fill="#CC3434"/>
<path d="M86.9963 19.6777H0V39.3221H86.9963V19.6777Z" fill="#F5FEFF"/>
<path d="M86.9963 50.6878C87.1366 55.7392 83.2078 58.9665 78.5773 58.9665H8.419C3.78855 58.9665 0 55.3183 0 50.5475" fill="black"/>
<path d="M50.5141 36.3755C50.3738 34.411 50.3738 32.4466 50.2335 30.4822C50.2335 29.6403 50.2335 28.7984 50.0931 27.9565C49.9528 26.5533 50.0931 25.1501 49.8125 23.8873C49.5319 23.6067 49.1109 23.326 48.69 23.4663C47.5674 23.6067 46.5852 24.7292 45.4627 24.5889C45.1821 24.1679 44.9014 23.6067 44.7611 22.7648C44.7611 22.3438 44.7611 22.0632 44.7611 21.6422C44.7611 20.9406 44.6208 20.3794 44.1998 20.0987C43.9192 19.9584 43.3579 19.8181 42.937 19.8181C42.7967 19.8181 42.6564 19.9584 42.516 20.0987C41.9548 19.8181 41.1129 19.6778 41.2532 20.5197C41.8145 20.2391 42.3757 20.9406 42.3757 21.5019C42.516 22.6244 42.0951 24.0276 41.5338 24.4486C40.271 24.4486 39.4291 23.4663 38.3065 23.326C37.3243 23.1857 37.0437 23.8873 37.0437 24.8695C37.0437 25.7114 37.0437 26.6936 36.9034 27.5355C36.9034 28.3774 36.9034 29.2193 36.7631 30.0612C36.7631 30.4822 36.7631 31.0434 36.7631 31.4644C36.6227 32.3063 36.7631 33.4288 36.6227 34.2707C36.6227 34.9723 36.6227 35.6739 36.4824 36.2352C36.9034 36.0948 37.605 36.2352 38.1662 36.2352C38.1662 36.3755 38.3065 36.3755 38.3065 36.6561C37.8856 36.7964 37.8856 37.0771 37.4646 37.2174C37.7453 37.3577 37.7453 37.919 38.0259 38.0593C38.0259 38.3399 38.0259 38.4802 38.1662 38.4802C38.4469 38.6205 39.2888 38.7609 39.7097 38.9012C42.2354 39.1818 46.024 39.1818 48.4093 38.7609C48.9706 38.6205 49.2512 38.6205 49.2512 38.0593C49.5319 37.919 49.5319 37.498 49.8125 37.2174C49.5319 37.0771 49.3916 36.9367 49.2512 36.7964C49.1109 36.6561 49.1109 36.7964 48.9706 36.6561C48.9706 36.5158 48.9706 36.3755 49.1109 36.3755C49.3916 36.3755 50.0931 36.2352 50.5141 36.3755ZM38.7275 36.0948C38.5872 36.2352 38.4469 36.2352 38.3065 36.3755C38.1662 36.0948 38.4469 35.8142 38.7275 35.8142C38.7275 35.8142 38.7275 35.9545 38.7275 36.0948ZM45.8836 36.6561C45.3224 36.6561 44.7611 36.7964 44.1998 36.6561C44.0595 36.5158 44.0595 36.2352 44.1998 36.0948C44.7611 36.0948 45.3224 36.0948 45.8836 36.0948C46.5852 35.9545 47.4271 35.8142 47.9884 35.6739C48.1287 35.6739 48.1287 35.9545 48.1287 36.0948C47.7078 36.3755 47.0062 36.3755 46.4449 36.5158C46.4449 35.9545 45.8836 36.0948 45.8836 36.6561ZM46.4449 36.6561C46.3046 36.7964 46.3046 36.7964 46.1643 36.9367C46.024 36.7964 45.8836 36.7964 45.8836 36.7964C45.8836 36.2352 46.4449 36.0948 46.4449 36.6561ZM42.516 31.745C42.6564 31.8853 42.7967 32.0257 42.937 32.0257C42.937 32.3063 42.7967 32.5869 42.7967 32.8676C42.6564 32.5869 42.0951 32.0257 42.516 31.745ZM41.8145 32.4466C41.6741 31.8853 41.6741 31.3241 41.6741 30.7628C41.9548 31.0434 42.2354 31.3241 42.516 31.6047C42.3757 31.8853 42.0951 32.166 41.8145 32.4466ZM42.937 35.6739C43.0773 34.9723 43.0773 34.1304 43.2176 33.4288C43.3579 33.9901 43.0773 34.9723 43.0773 35.5336C43.0773 35.8142 43.3579 35.8142 43.3579 36.0948C43.4983 35.9545 43.6386 35.8142 43.7789 35.6739C43.7789 34.9723 43.6386 34.1304 43.6386 33.4288C43.7789 34.1304 43.9192 34.832 43.9192 35.5336C44.0595 35.6739 44.1998 35.6739 44.1998 35.8142C44.3402 35.8142 44.3402 35.6739 44.4805 35.6739C44.6208 35.8142 44.4805 35.9545 44.6208 36.0948C44.4805 36.0948 44.1998 36.0948 44.0595 36.0948C43.9192 36.0948 43.9192 36.2352 43.7789 36.2352C43.4983 36.2352 43.2176 36.2352 42.937 36.2352C42.7967 35.9545 42.3757 36.0948 42.0951 36.0948C42.0951 35.9545 42.0951 35.8142 42.2354 35.8142C42.2354 35.6739 42.3757 35.9545 42.516 35.9545C42.6564 35.8142 42.7967 35.8142 42.937 35.6739ZM45.1821 32.4466C44.9014 32.3063 44.7611 31.8853 44.4805 31.6047C44.7611 31.3241 45.0417 31.0434 45.3224 30.7628C45.3224 31.3241 45.1821 31.8853 45.1821 32.4466ZM45.7433 29.9209C45.7433 29.9209 45.7433 30.0612 45.7433 29.9209C45.8836 30.6225 46.4449 31.3241 46.024 32.0257C45.7433 31.8853 45.603 31.4644 45.3224 31.3241C45.3224 30.7628 45.4627 30.3419 45.7433 29.9209ZM44.6208 32.0257C44.4805 32.3063 44.3402 32.7272 44.1998 33.0079C44.0595 32.7272 44.0595 32.4466 43.9192 32.166C44.0595 32.0257 44.1998 32.0257 44.3402 31.745C44.4805 31.745 44.6208 31.8853 44.6208 32.0257ZM43.2176 37.0771C43.0773 37.0771 42.937 36.9367 42.7967 36.7964C42.7967 36.6561 42.937 36.6561 42.937 36.3755C43.2176 36.3755 43.3579 36.7964 43.2176 37.0771ZM43.2176 36.3755C43.3579 36.3755 43.6386 36.3755 43.7789 36.3755C43.6386 36.5158 43.6386 36.7964 43.3579 36.6561C43.3579 36.5158 43.2176 36.5158 43.2176 36.3755ZM43.9192 36.3755C44.0595 36.3755 44.0595 36.6561 44.1998 36.7964C44.1998 36.9367 43.9192 36.9367 43.9192 37.0771C43.6386 36.9367 43.7789 36.5158 43.9192 36.3755ZM45.603 35.6739C45.7433 35.6739 45.8836 35.9545 45.8836 36.0948C45.7433 36.0948 45.603 36.0948 45.4627 36.0948C45.4627 35.9545 45.603 35.8142 45.603 35.6739ZM46.3046 35.9545C46.3046 35.6739 46.4449 35.5336 46.5852 35.3933C46.7255 35.5336 46.8659 35.6739 46.8659 35.8142C46.7255 35.8142 46.4449 35.9545 46.3046 35.9545ZM47.0062 35.8142C46.8659 35.6739 46.7255 35.3933 46.4449 35.1126C46.3046 35.3933 46.1643 35.6739 46.1643 35.9545H46.024C45.8836 35.8142 45.7433 35.5336 45.7433 35.3933C45.603 35.5336 45.603 35.8142 45.4627 36.0948C45.3224 36.0948 45.1821 36.0948 45.0417 36.0948C44.7611 35.6739 44.9014 35.1126 45.0417 34.5514C45.3224 34.6917 45.4627 34.9723 45.603 35.2529C45.7433 34.9723 45.7433 34.6917 45.8836 34.411C46.1643 34.5514 46.3046 34.832 46.4449 35.1126C46.5852 34.832 46.7255 34.411 46.8659 34.1304C46.8659 34.1304 46.8659 34.1304 47.0062 34.1304C47.1465 34.6917 47.2868 35.2529 47.4271 35.8142C47.2868 35.8142 47.1465 35.8142 47.0062 35.8142ZM46.4449 34.832C46.1643 34.6917 46.1643 34.411 45.8836 34.1304C45.7433 34.411 45.7433 34.6917 45.603 34.9723C45.3224 34.832 45.1821 34.411 44.9014 34.2707C44.7611 34.5514 44.7611 34.832 44.7611 35.1126C44.6208 34.6917 44.4805 34.1304 44.3402 33.5691C44.4805 33.5691 44.7611 33.9901 44.9014 34.1304C45.0417 33.7095 45.0417 33.2885 45.1821 33.0079C45.4627 33.1482 45.4627 33.4288 45.603 33.5691C45.7433 33.2885 45.8836 33.0079 46.024 32.7272C46.3046 32.8676 46.4449 33.1482 46.7255 33.2885C47.0062 33.9901 46.5852 34.411 46.4449 34.832ZM46.024 32.7272C45.8836 33.0079 45.8836 33.1482 45.7433 33.4288C45.4627 33.2885 45.4627 33.0079 45.3224 32.8676C45.1821 33.1482 45.0417 33.7095 45.0417 34.1304C44.7611 33.8498 44.3402 33.7095 44.3402 33.2885C44.3402 33.1482 44.4805 32.8676 44.4805 32.7272C44.6208 32.5869 44.6208 32.4466 44.7611 32.166C44.9014 32.3063 45.0417 32.5869 45.3224 32.7272C45.3224 32.3063 45.3224 31.8853 45.4627 31.4644C45.7433 31.6047 45.8836 31.8853 46.1643 32.166C46.3046 32.0257 46.3046 31.8853 46.3046 31.745C46.5852 32.166 46.7255 32.8676 46.7255 33.2885C46.4449 33.1482 46.3046 32.8676 46.024 32.7272ZM46.3046 30.6225C46.3046 29.7806 46.1643 28.9387 46.3046 28.2371C46.3046 28.2371 46.3046 28.2371 46.4449 28.2371C46.4449 29.6403 46.5852 31.0434 46.5852 32.4466C46.3046 31.8853 46.3046 31.1838 46.3046 30.6225ZM43.4983 32.3063C41.6741 31.1838 40.5516 29.2193 40.5516 26.2727C41.8145 26.2727 42.7967 25.992 43.4983 25.4308C43.7789 25.5711 44.0595 25.7114 44.3402 25.8517C44.9014 26.1324 45.603 26.2727 46.4449 26.2727C46.4449 29.2193 45.3224 31.1838 43.4983 32.3063ZM41.6741 31.3241C41.5338 31.6047 41.2532 31.8853 40.9726 32.0257C40.4113 31.4644 41.1129 30.6225 41.1129 29.9209C41.5338 30.2015 41.6741 30.7628 41.6741 31.3241ZM40.5516 28.2371C40.8322 28.5177 40.6919 29.2193 40.6919 29.7806C40.6919 30.7628 40.6919 31.6047 40.4113 32.3063C40.4113 31.0434 40.5516 29.5 40.5516 28.2371ZM40.8322 31.745C40.8322 31.8853 40.9726 32.0257 40.9726 32.166C41.2532 31.8853 41.3935 31.745 41.6741 31.4644C41.8145 31.745 41.8145 32.3063 41.8145 32.7272C41.9548 32.5869 42.0951 32.3063 42.3757 32.166C42.516 32.5869 42.6564 32.8676 42.7967 33.2885C42.6564 33.7095 42.3757 33.8498 42.0951 34.1304C41.9548 33.7095 41.8145 33.2885 41.6741 32.8676C41.3935 33.0079 41.5338 33.4288 41.2532 33.4288C41.1129 33.1482 41.1129 33.0079 40.9726 32.7272C40.6919 32.8676 40.5516 33.1482 40.271 33.2885C40.271 33.1482 40.4113 33.0079 40.4113 32.8676C40.5516 32.4466 40.5516 32.0257 40.8322 31.745ZM40.8322 32.8676C40.9726 33.0079 41.1129 33.4288 41.2532 33.7095C41.3935 33.5691 41.3935 33.2885 41.6741 33.1482C41.8145 33.5691 41.9548 33.9901 42.0951 34.2707C42.2354 34.1304 42.516 33.8498 42.6564 33.7095C42.516 34.1304 42.3757 34.6917 42.3757 35.1126C42.2354 34.9723 42.2354 34.5514 42.2354 34.2707C41.9548 34.411 41.8145 34.832 41.5338 34.9723C41.3935 34.6917 41.2532 34.411 41.2532 34.1304C40.9726 34.2707 40.9726 34.5514 40.6919 34.832C40.5516 34.411 40.1307 33.9901 40.271 33.4288C40.5516 33.2885 40.6919 33.0079 40.8322 32.8676ZM40.5516 34.9723C40.6919 34.6917 40.8322 34.5514 41.1129 34.2707C41.2532 34.5514 41.3935 34.832 41.3935 35.1126C41.6741 34.9723 41.8145 34.5514 41.9548 34.411C42.0951 34.832 42.2354 35.5336 41.9548 35.9545C41.8145 35.9545 41.6741 35.9545 41.5338 35.9545C41.3935 35.8142 41.3935 35.5336 41.2532 35.2529C41.1129 35.3933 40.9726 35.6739 40.8322 35.8142H40.6919C40.5516 35.5336 40.4113 35.2529 40.4113 34.9723C40.271 35.1126 40.1307 35.3933 39.9903 35.5336C39.85 35.5336 39.7097 35.5336 39.5694 35.3933C39.7097 34.832 39.85 34.2707 40.1307 33.5691C40.271 34.1304 40.4113 34.6917 40.5516 34.9723ZM41.5338 36.0948C41.3935 36.0948 41.2532 36.0948 41.1129 36.0948C41.1129 35.9545 41.2532 35.8142 41.2532 35.6739C41.3935 35.6739 41.3935 35.9545 41.5338 36.0948ZM40.6919 35.9545C40.4113 35.9545 40.271 35.8142 40.1307 35.8142C40.1307 35.5336 40.4113 35.5336 40.4113 35.2529C40.5516 35.5336 40.6919 35.6739 40.6919 35.9545ZM40.6919 36.0948C41.5338 36.2352 42.0951 36.2352 42.7967 36.2352C42.937 36.3755 42.7967 36.5158 42.7967 36.7964C42.2354 36.9367 41.6741 36.7964 41.1129 36.7964C41.1129 36.2352 40.6919 36.0948 40.6919 36.6561C40.1307 36.5158 39.2888 36.5158 39.2888 36.2352C39.2888 36.0948 39.2888 35.9545 39.2888 35.8142C39.2888 35.6739 39.1484 35.6739 39.4291 35.6739C39.85 35.8142 40.1307 35.9545 40.6919 36.0948ZM40.9726 36.6561C40.8322 36.6561 40.8322 36.7964 40.8322 36.7964C40.5516 36.7964 40.5516 36.0948 40.9726 36.2352C40.9726 36.3755 40.9726 36.5158 40.9726 36.6561ZM48.269 35.8142C48.5497 35.8142 48.69 36.0948 48.69 36.3755C48.5497 36.3755 48.4093 36.2352 48.269 36.2352C48.269 36.0948 48.269 35.8142 48.269 35.8142ZM47.4271 35.6739C47.1465 34.6917 46.8659 33.8498 46.5852 32.8676C46.8659 33.0079 47.0062 33.2885 47.1465 33.4288C47.1465 31.0434 46.8659 28.5177 46.8659 25.992C46.5852 26.1324 46.3046 26.2727 45.7433 26.2727C44.7611 26.2727 43.9192 25.8517 43.3579 25.4308C42.937 25.7114 42.2354 26.1324 41.5338 26.2727C40.8322 26.413 40.271 26.413 39.85 25.992C39.7097 28.5177 39.5694 30.9031 39.5694 33.4288C39.85 33.2885 39.9903 33.0079 40.271 32.8676C39.9903 33.8498 39.7097 34.9723 39.4291 35.8142C38.8678 35.6739 38.1662 35.2529 38.0259 36.2352C37.605 36.2352 37.3243 36.2352 36.9034 36.2352C37.0437 36.2352 37.0437 35.9545 37.3243 35.6739C37.4646 31.8853 37.605 28.2371 37.7453 24.3082C37.4646 24.3082 37.184 24.4486 37.0437 24.5889C37.0437 24.0276 37.3243 23.4663 37.8856 23.4663C39.1484 23.326 40.1307 24.5889 41.3935 24.5889C41.3935 24.7292 41.2532 24.7292 41.1129 24.8695C41.3935 24.8695 41.8145 24.8695 41.9548 24.7292C41.9548 24.8695 41.8145 25.0098 41.6741 25.1501C42.2354 25.1501 42.6564 24.8695 42.7967 24.5889C42.937 24.7292 43.0773 24.8695 43.2176 25.0098C43.3579 24.8695 43.4983 24.7292 43.6386 24.5889C43.9192 24.8695 44.3402 25.1501 44.9014 25.1501C44.9014 25.0098 44.6208 24.8695 44.6208 24.7292C44.9014 24.8695 45.3224 24.8695 45.4627 24.8695C45.4627 24.7292 45.1821 24.7292 45.1821 24.5889C46.5852 24.5889 47.2868 23.326 48.69 23.4663C49.2512 23.4663 49.5319 23.8873 49.5319 24.5889C49.2512 24.4486 49.1109 24.3082 48.8303 24.3082C48.9706 27.3952 49.1109 31.1838 49.2512 34.2707C49.2512 34.6917 49.1109 35.2529 49.2512 35.5336C49.3916 35.8142 49.8125 35.9545 49.9528 36.2352C49.5319 36.2352 48.9706 36.2352 48.5497 36.2352C48.8303 35.6739 48.1287 35.5336 47.4271 35.6739Z" fill="#DB9C00"/>
<path d="M45.8838 26.2727C44.9016 26.2727 44.0597 25.8517 43.4984 25.4308C43.0774 25.7114 42.3759 26.1324 41.6743 26.2727C40.9727 26.413 40.4114 26.413 39.9905 25.9921C39.9905 26.1324 39.9905 26.2727 39.9905 26.5533L40.6921 27.1146C40.6921 26.834 40.6921 26.6936 40.6921 26.413C41.9549 26.413 42.9371 26.1324 43.6387 25.5711C43.9193 25.7114 44.2 25.8517 44.4806 25.9921C45.0419 26.2727 45.7435 26.413 46.5854 26.413C46.5854 28.2371 46.0241 29.7806 45.1822 30.9031H45.3225L45.4628 30.7628C45.4628 30.9031 45.4628 30.9031 45.4628 31.0435C45.4628 30.6225 45.6031 30.2016 45.8838 29.9209C45.8838 29.9209 45.8838 29.9209 46.0241 29.9209C46.0241 30.4822 46.445 31.1838 46.3047 31.745C46.3047 31.745 46.3047 31.745 46.3047 31.6047V31.745L46.445 31.8853C46.3047 31.6047 46.3047 31.0435 46.3047 30.6225C46.3047 29.7806 46.1644 28.9387 46.3047 28.2371C46.3047 28.2371 46.3047 28.2371 46.445 28.2371C46.445 29.5 46.5854 30.9031 46.5854 32.166L47.2869 32.7273C47.2869 30.4822 47.1466 28.2371 47.0063 25.9921C46.7257 26.1324 46.445 26.2727 45.8838 26.2727Z" fill="#996A00"/>
<path d="M50.2335 30.4822C50.2335 29.6403 50.2335 28.7984 50.0932 27.9565C49.9529 26.5533 50.0932 25.1501 49.8126 23.8873C49.5319 23.6067 49.111 23.326 48.69 23.4663C47.5675 23.6067 46.5853 24.7292 45.4628 24.5889C45.1821 24.1679 44.9015 23.6067 44.7612 22.7648C44.7612 22.3438 44.7612 22.0632 44.7612 21.6422C44.7612 20.9407 44.6209 20.3794 44.1999 20.0987C43.9193 19.9584 43.358 19.8181 42.9371 19.8181C42.7967 19.8181 42.6564 19.9584 42.5161 20.0987C41.9548 19.8181 41.1129 19.6778 41.2533 20.5197C41.8145 20.2391 42.3758 20.9406 42.3758 21.5019C42.5161 22.6244 42.0952 24.0276 41.5339 24.4486C40.271 24.4486 39.4291 23.4663 38.3066 23.326C37.605 23.326 37.3244 23.6067 37.1841 24.0276C37.3244 23.747 37.605 23.4663 38.026 23.4663C39.2888 23.326 40.271 24.5889 41.5339 24.5889C41.5339 24.7292 41.3936 24.7292 41.2533 24.8695C41.5339 24.8695 41.9548 24.8695 42.0952 24.7292C42.0952 24.8695 41.9548 25.0098 41.8145 25.1501C42.3758 25.1501 42.7967 24.8695 42.9371 24.5889C43.0774 24.7292 43.2177 24.8695 43.358 25.0098C43.4983 24.8695 43.6386 24.7292 43.779 24.5889C44.0596 24.8695 44.4805 25.1501 45.0418 25.1501C45.0418 25.0098 44.7612 24.8695 44.7612 24.7292C45.0418 24.8695 45.4628 24.8695 45.6031 24.8695C45.6031 24.7292 45.3224 24.7292 45.3224 24.5889C46.7256 24.5889 47.4272 23.326 48.8304 23.4663C49.3916 23.4663 49.6723 23.8873 49.6723 24.5889C49.3916 24.4486 49.2513 24.3082 48.9707 24.3082C49.111 27.3952 49.2513 31.1838 49.3916 34.2707C49.3916 34.411 49.3916 34.5514 49.3916 34.6917L50.2335 35.3933C50.3738 33.7095 50.3738 32.166 50.2335 30.4822Z" fill="#996A00"/>
<path d="M37.8855 24.7292C37.8855 24.5889 37.8855 24.4485 37.8855 24.3082C37.7452 24.3082 37.6049 24.3082 37.4646 24.4485L37.8855 24.7292Z" fill="#996A00"/>
<path d="M38.0259 24.4486C37.8856 28.0968 37.7453 31.7451 37.605 35.253C37.8856 35.1127 38.1662 34.6917 38.4469 34.5514C38.5872 31.1838 38.7275 28.3775 38.8678 25.1502C38.5872 24.8696 38.3066 24.5889 38.0259 24.4486Z" fill="#DB9C00"/>
<path d="M38.0259 24.8696L38.8678 25.5711C38.8678 25.4308 38.8678 25.2905 38.8678 25.1502C38.5871 24.8696 38.3065 24.5889 38.0259 24.4486C38.0259 24.5889 38.0259 24.7292 38.0259 24.8696Z" fill="#996A00"/>
<path d="M48.9706 24.4486C48.8302 24.7292 48.269 24.8696 48.1287 25.1502C48.1287 25.4308 48.1287 26.1324 48.1287 26.413C48.4093 28.9387 48.269 31.7451 48.4093 34.4111C48.5496 34.5514 48.6899 34.6917 48.8302 34.832C48.9706 34.9724 49.1109 35.253 49.2512 35.1127C49.2512 31.7451 49.1109 27.6759 48.9706 24.4486Z" fill="#DB9C00"/>
<path d="M48.9706 24.4486C48.8302 24.7292 48.269 24.8696 48.1287 25.1502C48.1287 25.4308 48.1287 26.1324 48.1287 26.413C48.269 28.6581 48.269 31.1838 48.4093 33.7095L49.2512 34.4111C49.2512 31.1838 49.1109 27.5356 48.9706 24.4486Z" fill="#996A00"/>
<path d="M38.7275 34.2707C38.8679 33.99 39.2888 33.8497 39.4291 33.5691C39.5694 33.2885 39.4291 32.8675 39.4291 32.4466C39.5694 30.3418 39.7098 27.8161 39.7098 25.8517C39.4291 25.7114 39.2888 25.4307 39.0082 25.2904C39.0082 28.2371 38.8679 31.324 38.7275 34.2707Z" fill="#DB9C00"/>
<path d="M39.0081 25.7114L39.7096 26.2726C39.7096 26.1323 39.7096 25.992 39.7096 25.8517C39.429 25.7114 39.2887 25.4307 39.0081 25.2904C39.1484 25.4307 39.0081 25.571 39.0081 25.7114Z" fill="#996A00"/>
<path d="M47.2869 25.8517C47.4272 28.3774 47.4272 31.0435 47.5675 33.5691C47.7078 33.7095 47.9884 33.9901 48.1288 34.1304L48.2691 34.2707C48.1288 31.3241 47.9884 28.0968 47.8481 25.4308C47.7078 25.5711 47.4272 25.7114 47.2869 25.8517Z" fill="#DB9C00"/>
<path d="M47.8481 25.2904C47.7078 25.4307 47.4272 25.571 47.2869 25.8517C47.4272 28.2371 47.4272 30.6224 47.5675 33.0078L48.2691 33.5691C48.1288 30.7628 47.9884 27.8161 47.8481 25.2904Z" fill="#996A00"/>
<path d="M40.6919 26.4129C40.8322 29.079 41.8144 30.9031 43.4982 32.0256C45.182 30.9031 46.1642 29.079 46.1642 26.4129C45.0417 26.4129 44.0595 26.1323 43.4982 25.571C42.937 26.1323 41.8144 26.4129 40.6919 26.4129Z" fill="#DB9C00"/>
<path d="M40.6919 26.4129C40.6919 26.6936 40.8322 26.8339 40.8322 27.1145L44.9014 30.6224C45.7433 29.4999 46.1642 28.0967 46.1642 26.4129C45.0417 26.4129 44.0595 26.1323 43.4982 25.571C42.937 26.1323 41.8144 26.4129 40.6919 26.4129Z" fill="#996A00"/>
<path d="M39.0081 35.9545C39.1484 35.9545 39.2887 36.0948 39.429 36.0948C39.429 35.8142 39.1484 35.8142 39.0081 35.9545C39.0081 35.9545 39.0081 35.8142 39.0081 35.9545Z" fill="#DB9C00"/>
<path d="M47.5674 36.0948C47.7077 36.0948 47.848 35.9545 47.9883 35.9545C47.9883 35.8142 47.5674 35.8142 47.5674 36.0948Z" fill="#DB9C00"/>
<path d="M40.271 36.235C40.1307 36.0947 39.9904 36.0947 39.7097 36.0947C39.85 36.235 40.1307 36.235 40.271 36.235Z" fill="#DB9C00"/>
<path d="M46.7256 36.235C46.8659 36.235 47.2869 36.235 47.2869 36.0947C47.0062 36.0947 46.7256 36.235 46.7256 36.235Z" fill="#DB9C00"/>
<path d="M45.1819 36.5158C45.3222 36.5158 45.6028 36.5158 45.7431 36.5158C45.7431 36.2351 45.3222 36.2351 45.1819 36.5158Z" fill="#DB9C00"/>
<path d="M41.8144 36.3754C41.6741 36.3754 41.2532 36.2351 41.2532 36.5157C41.3935 36.3754 41.8144 36.5157 41.8144 36.3754Z" fill="#DB9C00"/>
<path d="M42.6562 36.3754C42.5159 36.3754 42.095 36.3754 42.095 36.5157C42.2353 36.5157 42.5159 36.5157 42.6562 36.3754Z" fill="#DB9C00"/>
<path d="M44.3401 36.5158C44.4804 36.5158 44.6207 36.5158 44.9014 36.6561C44.9014 36.3754 44.4804 36.3754 44.3401 36.5158Z" fill="#DB9C00"/>
<path d="M48.5497 37.498C48.1287 37.498 48.269 36.7964 47.9884 36.6561C47.8481 36.6561 47.7078 36.6561 47.5675 36.7964C47.9884 36.5158 48.1287 37.2174 48.1287 37.6383C47.9884 37.6383 47.9884 37.498 47.8481 37.498C47.5675 37.498 47.5675 37.7787 47.2868 37.7787C47.2868 37.6383 47.1465 37.6383 46.8659 37.6383C46.7256 37.498 46.8659 37.2174 46.7256 37.2174C46.7256 37.3577 46.8659 37.498 46.8659 37.6383C46.7256 37.7787 46.7256 37.7787 46.7256 37.919C46.7256 37.919 46.5852 37.919 46.4449 37.919C46.4449 37.7787 46.4449 37.6383 46.3046 37.6383C46.3046 37.7787 46.024 37.7787 46.1643 37.919C46.1643 37.919 46.3046 37.919 46.4449 38.0593C46.4449 38.1996 46.3046 38.1996 46.3046 38.3399C46.4449 38.3399 46.4449 38.1996 46.5852 38.0593C46.8659 38.0593 47.1465 37.919 47.2868 38.0593C47.4271 38.0593 47.4271 37.7787 47.5675 37.7787C47.8481 38.0593 48.1287 37.6383 48.269 37.6383C48.4094 37.6383 48.5497 37.6383 48.69 37.6383V37.498C48.5497 37.3577 48.69 37.498 48.5497 37.498ZM46.1643 37.919C46.1643 37.7787 46.1643 37.7787 46.3046 37.7787C46.3046 37.919 46.3046 37.919 46.3046 37.919C46.3046 37.919 46.3046 38.0593 46.1643 37.919ZM46.8659 37.919C46.8659 37.7787 46.8659 37.7787 46.8659 37.6383C47.0062 37.6383 47.0062 37.7787 46.8659 37.919ZM47.2868 37.7787H47.1465C46.8659 37.6383 47.2868 37.498 47.2868 37.7787ZM47.1465 37.919C47.1465 37.7787 47.2868 37.7787 47.2868 37.7787C47.2868 37.919 47.1465 38.0593 47.1465 37.919ZM47.5675 37.7787C47.5675 37.498 47.8481 37.498 47.9884 37.6383C47.9884 37.7787 47.7078 37.7787 47.5675 37.7787Z" fill="#F5FEFF"/>
<path d="M39.1486 36.9367C39.1486 36.7964 39.1486 36.7964 39.1486 36.9367C39.0082 36.7964 39.0082 36.7964 38.8679 36.7964C38.8679 36.9367 38.8679 36.7964 38.8679 36.9367C39.0082 36.9367 39.0082 36.9367 39.1486 36.9367Z" fill="#F5FEFF"/>
<path d="M39.0082 37.077C39.0082 37.077 38.8679 37.077 38.7275 37.077C38.8679 37.2173 38.8679 37.2173 39.0082 37.077Z" fill="#F5FEFF"/>
<path d="M44.6208 37.498V37.3577C44.6208 37.3577 44.6208 37.3577 44.4805 37.3577C44.4805 37.3577 44.4805 37.498 44.6208 37.498C44.6208 37.498 44.4805 37.498 44.6208 37.498Z" fill="#F5FEFF"/>
<path d="M41.3935 38.3399C41.2531 38.1996 41.2531 38.0593 41.1128 37.9189C41.3935 37.7786 41.2531 37.3577 41.1128 37.3577C40.9725 37.3577 40.9725 37.498 40.8322 37.498C40.8322 37.6383 40.9725 37.6383 40.9725 37.7786C40.8322 37.7786 40.5516 37.9189 40.4112 37.7786C40.4112 37.6383 40.4112 37.498 40.2709 37.498C40.2709 37.6383 40.4112 37.9189 40.1306 38.0592C40.2709 38.0592 40.2709 37.9189 40.4112 37.9189C40.5516 38.0593 40.8322 37.9189 40.9725 37.9189C41.2531 38.0593 41.2531 38.4802 41.3935 38.3399C41.6741 38.3399 41.6741 37.6383 41.5338 37.3577C41.5338 37.6383 41.8144 38.3399 41.3935 38.3399ZM40.8322 37.7786C40.8322 37.3577 41.3935 37.7786 40.9725 37.9189L40.8322 37.7786Z" fill="#F5FEFF"/>
<path d="M41.9549 38.1996C41.9549 37.9189 42.0953 37.498 41.9549 37.3577C41.9549 37.498 41.8146 37.9189 41.9549 38.1996Z" fill="#F5FEFF"/>
<path d="M45.3224 37.6384C45.1821 37.7787 45.4627 37.7787 45.3224 37.919C45.3224 38.0593 45.1821 38.0593 45.0418 38.0593C44.7612 37.919 45.0418 37.3577 44.9015 37.2174C44.9015 37.3577 45.0418 37.6384 44.9015 37.919C44.7612 37.919 44.6208 37.919 44.6208 38.0593C44.9015 38.0593 45.1821 38.0593 45.4628 38.0593C45.4628 38.0593 45.6031 37.6384 45.3224 37.6384Z" fill="#F5FEFF"/>
<path d="M44.7612 37.6383C44.7612 37.498 44.6209 37.6383 44.6209 37.6383C44.3402 37.6383 44.7612 37.7786 44.7612 37.6383Z" fill="#F5FEFF"/>
<path d="M45.7434 37.6383C45.6031 37.7786 45.8837 37.9189 45.8837 38.0593C45.8837 38.1996 45.7434 38.1996 45.7434 38.3399C45.8837 38.3399 46.024 37.7786 45.7434 37.6383ZM45.8837 38.0593C45.7434 38.0593 45.7434 37.9189 45.7434 37.9189C45.7434 37.7786 45.8837 37.9189 45.8837 38.0593Z" fill="#F5FEFF"/>
<path d="M48.269 37.7787C48.4094 37.7787 48.5497 37.919 48.5497 37.7787C48.4094 37.7787 48.269 37.6384 48.269 37.7787Z" fill="#F5FEFF"/>
<path d="M43.9193 38.1996H43.779C43.779 38.0593 43.779 37.919 43.6387 37.919C43.3581 38.0593 42.9371 37.919 42.6565 37.7787C42.6565 37.919 42.7968 38.0593 42.5162 38.1996C42.3758 38.1996 42.3758 37.919 42.2355 37.919C42.0952 38.0593 42.3758 38.1996 42.3758 38.1996C42.3758 38.34 42.2355 38.4803 42.0952 38.6206C42.2355 38.6206 42.3758 38.34 42.5162 38.1996C42.9371 38.1996 42.9371 38.1996 43.3581 38.1996C43.3581 38.34 43.4984 38.34 43.6387 38.4803C43.779 38.4803 43.779 38.1996 43.779 38.1996C44.0596 38.1996 44.2 38.1996 44.3403 38.0593C44.3403 37.7787 43.9193 37.919 43.9193 38.1996ZM43.4984 38.4803C43.3581 38.4803 43.3581 38.34 43.3581 38.1996C43.2177 38.1996 42.9371 38.1996 42.7968 38.1996C42.7968 37.6384 43.3581 38.1996 43.6387 37.919C43.779 38.1996 43.6387 38.34 43.4984 38.4803ZM44.0596 38.1996C43.9193 38.0593 44.2 37.919 44.2 38.0593C44.2 38.1996 44.2 38.1996 44.0596 38.1996Z" fill="#F5FEFF"/>
<path d="M39.0082 38.1996V38.0593C39.0082 38.0593 39.0082 37.919 38.8679 38.0593C38.8679 37.919 38.8679 38.0593 39.0082 38.1996Z" fill="#F5FEFF"/>
<path d="M39.1484 38.1997C39.2888 38.34 39.4291 38.1997 39.4291 38.0593C39.2888 37.919 39.1484 38.0593 39.1484 38.1997Z" fill="#F5FEFF"/>
<path d="M39.5693 38.1996H39.7096C39.7096 37.919 39.429 38.0593 39.5693 38.1996Z" fill="#F5FEFF"/>
<path d="M44.9014 38.34C44.7611 38.34 44.7611 38.6206 44.9014 38.6206V38.34Z" fill="#F5FEFF"/>
<path d="M45.0417 38.4802C45.0417 38.6205 45.1821 38.6205 45.1821 38.6205C45.4627 38.4802 45.0417 38.1996 45.0417 38.4802Z" fill="#F5FEFF"/>
<path d="M39.9905 37.498C40.2711 37.9189 39.7098 38.0592 39.5695 37.7786C39.5695 37.6383 39.7098 37.6383 39.7098 37.498C39.5695 37.498 39.5695 37.7786 39.5695 37.7786C39.0082 37.7786 39.4292 37.077 39.4292 36.7964C39.4292 36.7964 39.4292 36.7964 39.2889 36.7964C39.2889 37.077 39.1486 37.3577 38.8679 37.498C38.8679 37.7786 39.1486 37.7786 39.4292 37.9189C39.5695 38.0592 39.8501 38.0592 39.9905 38.0592C39.9905 37.7786 40.2711 37.498 39.9905 37.498Z" fill="#F5FEFF"/>
</g>
<defs>
<clipPath id="clip0_1624_715">
<rect width="87" height="59" fill="white"/>
</clipPath>
</defs>
</svg>
